<?xml version="1.0" encoding="UTF-8" standalone="no"?><svg xmlns="http://www.w3.org/2000/svg" xmlns:xlink="http://www.w3.org/1999/xlink" contentScriptType="application/ecmascript" contentStyleType="text/css" height="1257.6px" preserveAspectRatio="none" style="width:1053px;height:1257px;" version="1.1" viewBox="0 0 1053 1257" width="1053.6px" zoomAndPan="magnify"><defs><filter height="300%" id="fcpkg2teasj6a" width="300%" x="-1" y="-1"><feGaussianBlur result="blurOut" stdDeviation="2.4"/><feColorMatrix in="blurOut" result="blurOut2" type="matrix" values="0 0 0 0 0 0 0 0 0 0 0 0 0 0 0 0 0 0 .4 0"/><feOffset dx="4.8" dy="4.8" in="blurOut2" result="blurOut3"/><feBlend in="SourceGraphic" in2="blurOut3" mode="normal"/></filter></defs><g><text fill="#000000" font-family="sans-serif" font-size="21.6" lengthAdjust="spacingAndGlyphs" textLength="86.4" x="488.4" y="20.0496">渠道权重</text><rect fill="#FEFECE" filter="url(#fcpkg2teasj6a)" height="57.6" id="用户实名Facade" style="stroke: #A80036; stroke-width: 1.7999999999999998;" width="151.2" x="647.4" y="34.7438"/><ellipse cx="665.4" cy="53.9438" fill="#B4A7E5" rx="13.2" ry="13.2" style="stroke: #A80036; stroke-width: 1.2;"/><path d="M660.5063,48.8625 L660.5063,46.275 L669.375,46.275 L669.375,48.8625 L666.4125,48.8625 L666.4125,58.5563 L669.375,58.5563 L669.375,61.1438 L660.5063,61.1438 L660.5063,58.5563 L663.4688,58.5563 L663.4688,48.8625 L660.5063,48.8625 Z "/><text fill="#000000" font-family="sans-serif" font-size="14.4" font-style="italic" lengthAdjust="spacingAndGlyphs" textLength="112.8" x="682.2" y="58.9289">用户实名Facade</text><line style="stroke: #A80036; stroke-width: 1.7999999999999998;" x1="648.6" x2="797.4" y1="73.1438" y2="73.1438"/><line style="stroke: #A80036; stroke-width: 1.7999999999999998;" x1="648.6" x2="797.4" y1="82.7437" y2="82.7437"/><rect fill="#FEFECE" filter="url(#fcpkg2teasj6a)" height="57.6" id="用户验卡Facade" style="stroke: #A80036; stroke-width: 1.7999999999999998;" width="151.2" x="454.2" y="34.7438"/><ellipse cx="472.2" cy="53.9438" fill="#B4A7E5" rx="13.2" ry="13.2" style="stroke: #A80036; stroke-width: 1.2;"/><path d="M467.3063,48.8625 L467.3063,46.275 L476.175,46.275 L476.175,48.8625 L473.2125,48.8625 L473.2125,58.5563 L476.175,58.5563 L476.175,61.1438 L467.3063,61.1438 L467.3063,58.5563 L470.2687,58.5563 L470.2687,48.8625 L467.3063,48.8625 Z "/><text fill="#000000" font-family="sans-serif" font-size="14.4" font-style="italic" lengthAdjust="spacingAndGlyphs" textLength="112.8" x="489" y="58.9289">用户验卡Facade</text><line style="stroke: #A80036; stroke-width: 1.7999999999999998;" x1="455.4" x2="604.2" y1="73.1438" y2="73.1438"/><line style="stroke: #A80036; stroke-width: 1.7999999999999998;" x1="455.4" x2="604.2" y1="82.7437" y2="82.7437"/><rect fill="#FEFECE" filter="url(#fcpkg2teasj6a)" height="57.6" id="资金出款Facade" style="stroke: #A80036; stroke-width: 1.7999999999999998;" width="151.2" x="261" y="34.7438"/><ellipse cx="279" cy="53.9438" fill="#B4A7E5" rx="13.2" ry="13.2" style="stroke: #A80036; stroke-width: 1.2;"/><path d="M274.1063,48.8625 L274.1063,46.275 L282.975,46.275 L282.975,48.8625 L280.0125,48.8625 L280.0125,58.5563 L282.975,58.5563 L282.975,61.1438 L274.1063,61.1438 L274.1063,58.5563 L277.0687,58.5563 L277.0687,48.8625 L274.1063,48.8625 Z "/><text fill="#000000" font-family="sans-serif" font-size="14.4" font-style="italic" lengthAdjust="spacingAndGlyphs" textLength="112.8" x="295.8" y="58.9289">资金出款Facade</text><line style="stroke: #A80036; stroke-width: 1.7999999999999998;" x1="262.2" x2="411" y1="73.1438" y2="73.1438"/><line style="stroke: #A80036; stroke-width: 1.7999999999999998;" x1="262.2" x2="411" y1="82.7437" y2="82.7437"/><rect fill="#FEFECE" filter="url(#fcpkg2teasj6a)" height="57.6" id="其他渠道类Facade" style="stroke: #A80036; stroke-width: 1.7999999999999998;" width="165.6" x="53.4" y="34.7438"/><ellipse cx="71.4" cy="53.9438" fill="#B4A7E5" rx="13.2" ry="13.2" style="stroke: #A80036; stroke-width: 1.2;"/><path d="M66.5063,48.8625 L66.5063,46.275 L75.375,46.275 L75.375,48.8625 L72.4125,48.8625 L72.4125,58.5563 L75.375,58.5563 L75.375,61.1438 L66.5063,61.1438 L66.5063,58.5563 L69.4688,58.5563 L69.4688,48.8625 L66.5063,48.8625 Z "/><text fill="#000000" font-family="sans-serif" font-size="14.4" font-style="italic" lengthAdjust="spacingAndGlyphs" textLength="127.2" x="88.2" y="58.9289">其他渠道类Facade</text><line style="stroke: #A80036; stroke-width: 1.7999999999999998;" x1="54.6" x2="217.8" y1="73.1438" y2="73.1438"/><line style="stroke: #A80036; stroke-width: 1.7999999999999998;" x1="54.6" x2="217.8" y1="82.7437" y2="82.7437"/><rect fill="#FEFECE" filter="url(#fcpkg2teasj6a)" height="72.9656" id="AbsFacade" style="stroke: #A80036; stroke-width: 1.7999999999999998;" width="150" x="357.6" y="237.5438"/><ellipse cx="388.56" cy="256.7438" fill="#A9DCDF" rx="13.2" ry="13.2" style="stroke: #A80036; stroke-width: 1.2;"/><path d="M388.6913,251.1563 L387.3038,257.25 L390.0975,257.25 L388.6913,251.1563 Z M386.91,248.475 L390.4913,248.475 L394.5225,263.3438 L391.5788,263.3438 L390.66,259.6688 L386.7225,259.6688 L385.8225,263.3438 L382.8975,263.3438 L386.91,248.475 Z "/><text fill="#000000" font-family="sans-serif" font-size="14.4" font-style="italic" lengthAdjust="spacingAndGlyphs" textLength="82.8" x="408.24" y="261.7289">AbsFacade</text><line style="stroke: #A80036; stroke-width: 1.7999999999999998;" x1="358.8" x2="506.4" y1="275.9437" y2="275.9437"/><rect fill="none" height="7.2" style="stroke: #C82930; stroke-width: 1.2;" width="7.2" x="367.2" y="285.5438"/><text fill="#000000" font-family="sans-serif" font-size="13.2" lengthAdjust="spacingAndGlyphs" textLength="118.8" x="381.6" y="292.9963">processorFactory</text><line style="stroke: #A80036; stroke-width: 1.7999999999999998;" x1="358.8" x2="506.4" y1="300.9094" y2="300.9094"/><rect fill="#FEFECE" filter="url(#fcpkg2teasj6a)" height="57.6" id="FacadeImpl1" style="stroke: #A80036; stroke-width: 1.7999999999999998;" width="133.2" x="7.2" y="245.3438"/><ellipse cx="25.2" cy="264.5438" fill="#ADD1B2" rx="13.2" ry="13.2" style="stroke: #A80036; stroke-width: 1.2;"/><path d="M28.7625,271.3125 Q28.0687,271.6688 27.3,271.8469 Q26.5313,272.025 25.6875,272.025 Q22.6875,272.025 21.1031,270.0469 Q19.5188,268.0687 19.5188,264.3187 Q19.5188,260.5687 21.1031,258.5813 Q22.6875,256.5938 25.6875,256.5938 Q26.5313,256.5938 27.3094,256.7813 Q28.0875,256.9688 28.7625,257.325 L28.7625,260.5875 Q28.0125,259.8938 27.3,259.5656 Q26.5875,259.2375 25.8375,259.2375 Q24.225,259.2375 23.4,260.5219 Q22.575,261.8063 22.575,264.3187 Q22.575,266.8313 23.4,268.1156 Q24.225,269.4 25.8375,269.4 Q26.5875,269.4 27.3,269.0719 Q28.0125,268.7438 28.7625,268.05 L28.7625,271.3125 Z "/><text fill="#000000" font-family="sans-serif" font-size="14.4" lengthAdjust="spacingAndGlyphs" textLength="94.8" x="42" y="269.5289">FacadeImpl1</text><line style="stroke: #A80036; stroke-width: 1.7999999999999998;" x1="8.4" x2="139.2" y1="283.7438" y2="283.7438"/><line style="stroke: #A80036; stroke-width: 1.7999999999999998;" x1="8.4" x2="139.2" y1="293.3438" y2="293.3438"/><rect fill="#FEFECE" filter="url(#fcpkg2teasj6a)" height="57.6" id="FacadeImpl2" style="stroke: #A80036; stroke-width: 1.7999999999999998;" width="133.2" x="182.4" y="245.3438"/><ellipse cx="200.4" cy="264.5438" fill="#ADD1B2" rx="13.2" ry="13.2" style="stroke: #A80036; stroke-width: 1.2;"/><path d="M203.9625,271.3125 Q203.2687,271.6688 202.5,271.8469 Q201.7313,272.025 200.8875,272.025 Q197.8875,272.025 196.3031,270.0469 Q194.7188,268.0687 194.7188,264.3187 Q194.7188,260.5687 196.3031,258.5813 Q197.8875,256.5938 200.8875,256.5938 Q201.7313,256.5938 202.5094,256.7813 Q203.2875,256.9688 203.9625,257.325 L203.9625,260.5875 Q203.2125,259.8938 202.5,259.5656 Q201.7875,259.2375 201.0375,259.2375 Q199.425,259.2375 198.6,260.5219 Q197.775,261.8063 197.775,264.3187 Q197.775,266.8313 198.6,268.1156 Q199.425,269.4 201.0375,269.4 Q201.7875,269.4 202.5,269.0719 Q203.2125,268.7438 203.9625,268.05 L203.9625,271.3125 Z "/><text fill="#000000" font-family="sans-serif" font-size="14.4" lengthAdjust="spacingAndGlyphs" textLength="94.8" x="217.2" y="269.5289">FacadeImpl2</text><line style="stroke: #A80036; stroke-width: 1.7999999999999998;" x1="183.6" x2="314.4" y1="283.7438" y2="283.7438"/><line style="stroke: #A80036; stroke-width: 1.7999999999999998;" x1="183.6" x2="314.4" y1="293.3438" y2="293.3438"/><rect fill="#FEFECE" filter="url(#fcpkg2teasj6a)" height="72.9656" id="ProcFactory" style="stroke: #A80036; stroke-width: 1.7999999999999998;" width="127.2" x="369" y="455.9437"/><ellipse cx="387" cy="475.1437" fill="#B4A7E5" rx="13.2" ry="13.2" style="stroke: #A80036; stroke-width: 1.2;"/><path d="M382.1063,470.0625 L382.1063,467.475 L390.975,467.475 L390.975,470.0625 L388.0125,470.0625 L388.0125,479.7562 L390.975,479.7562 L390.975,482.3438 L382.1063,482.3438 L382.1063,479.7562 L385.0687,479.7562 L385.0687,470.0625 L382.1063,470.0625 Z "/><text fill="#000000" font-family="sans-serif" font-size="14.4" font-style="italic" lengthAdjust="spacingAndGlyphs" textLength="88.8" x="403.8" y="480.1289">ProcFactory</text><line style="stroke: #A80036; stroke-width: 1.7999999999999998;" x1="370.2" x2="495" y1="494.3438" y2="494.3438"/><line style="stroke: #A80036; stroke-width: 1.2;" x1="370.2" x2="495" y1="503.9437" y2="503.9437"/><ellipse cx="382.2" cy="517.1438" fill="none" rx="3.6" ry="3.6" style="stroke: #038048; stroke-width: 1.2;"/><text fill="#000000" font-family="sans-serif" font-size="13.2" lengthAdjust="spacingAndGlyphs" textLength="91.2" x="393" y="520.9963">getProcessor</text><rect fill="#FEFECE" filter="url(#fcpkg2teasj6a)" height="103.6969" id="ProcFactoryImpl" style="stroke: #A80036; stroke-width: 1.7999999999999998;" width="157.2" x="354" y="674.3438"/><ellipse cx="372" cy="693.5437" fill="#ADD1B2" rx="13.2" ry="13.2" style="stroke: #A80036; stroke-width: 1.2;"/><path d="M375.5625,700.3125 Q374.8688,700.6687 374.1,700.8469 Q373.3313,701.025 372.4875,701.025 Q369.4875,701.025 367.9031,699.0469 Q366.3187,697.0688 366.3187,693.3188 Q366.3187,689.5688 367.9031,687.5813 Q369.4875,685.5938 372.4875,685.5938 Q373.3313,685.5938 374.1094,685.7813 Q374.8875,685.9688 375.5625,686.325 L375.5625,689.5875 Q374.8125,688.8938 374.1,688.5656 Q373.3875,688.2375 372.6375,688.2375 Q371.025,688.2375 370.2,689.5219 Q369.375,690.8063 369.375,693.3188 Q369.375,695.8313 370.2,697.1156 Q371.025,698.4 372.6375,698.4 Q373.3875,698.4 374.1,698.0719 Q374.8125,697.7438 375.5625,697.05 L375.5625,700.3125 Z "/><text fill="#000000" font-family="sans-serif" font-size="14.4" lengthAdjust="spacingAndGlyphs" textLength="118.8" x="388.8" y="698.5289">ProcFactoryImpl</text><line style="stroke: #A80036; stroke-width: 1.7999999999999998;" x1="355.2" x2="510" y1="712.7438" y2="712.7438"/><rect fill="none" height="7.2" style="stroke: #C82930; stroke-width: 1.2;" width="7.2" x="363.6" y="722.3438"/><text fill="#000000" font-family="sans-serif" font-size="13.2" lengthAdjust="spacingAndGlyphs" textLength="82.8" x="378" y="729.7963">loadBalance</text><rect fill="none" height="7.2" style="stroke: #C82930; stroke-width: 1.2;" width="7.2" x="363.6" y="737.7094"/><text fill="#000000" font-family="sans-serif" font-size="13.2" lengthAdjust="spacingAndGlyphs" textLength="78" x="378" y="745.1619">processors</text><line style="stroke: #A80036; stroke-width: 1.2;" x1="355.2" x2="510" y1="753.075" y2="753.075"/><ellipse cx="367.2" cy="766.275" fill="none" rx="3.6" ry="3.6" style="stroke: #038048; stroke-width: 1.2;"/><text fill="#000000" font-family="sans-serif" font-size="13.2" lengthAdjust="spacingAndGlyphs" textLength="91.2" x="378" y="770.1275">getProcessor</text><rect fill="#FEFECE" filter="url(#fcpkg2teasj6a)" height="72.9656" id="Processor" style="stroke: #A80036; stroke-width: 1.7999999999999998;" width="114" x="375.6" y="922.7438"/><ellipse cx="393.6" cy="941.9437" fill="#B4A7E5" rx="13.2" ry="13.2" style="stroke: #A80036; stroke-width: 1.2;"/><path d="M388.7063,936.8625 L388.7063,934.275 L397.575,934.275 L397.575,936.8625 L394.6125,936.8625 L394.6125,946.5563 L397.575,946.5563 L397.575,949.1438 L388.7063,949.1438 L388.7063,946.5563 L391.6688,946.5563 L391.6688,936.8625 L388.7063,936.8625 Z "/><text fill="#000000" font-family="sans-serif" font-size="14.4" font-style="italic" lengthAdjust="spacingAndGlyphs" textLength="75.6" x="410.4" y="946.9289">Processor</text><line style="stroke: #A80036; stroke-width: 1.7999999999999998;" x1="376.8" x2="488.4" y1="961.1438" y2="961.1438"/><line style="stroke: #A80036; stroke-width: 1.2;" x1="376.8" x2="488.4" y1="970.7438" y2="970.7438"/><ellipse cx="388.8" cy="983.9437" fill="none" rx="3.6" ry="3.6" style="stroke: #038048; stroke-width: 1.2;"/><text fill="#000000" font-family="sans-serif" font-size="13.2" lengthAdjust="spacingAndGlyphs" textLength="55.2" x="399.6" y="987.7963">process</text><rect fill="#FEFECE" filter="url(#fcpkg2teasj6a)" height="103.6969" id="AbsProcessor" style="stroke: #A80036; stroke-width: 1.7999999999999998;" width="141.6" x="361.8" y="1141.1438"/><ellipse cx="379.8" cy="1160.3438" fill="#ADD1B2" rx="13.2" ry="13.2" style="stroke: #A80036; stroke-width: 1.2;"/><path d="M383.3625,1167.1125 Q382.6688,1167.4688 381.9,1167.6469 Q381.1312,1167.825 380.2875,1167.825 Q377.2875,1167.825 375.7031,1165.8469 Q374.1188,1163.8687 374.1188,1160.1187 Q374.1188,1156.3687 375.7031,1154.3813 Q377.2875,1152.3938 380.2875,1152.3938 Q381.1312,1152.3938 381.9094,1152.5813 Q382.6875,1152.7688 383.3625,1153.125 L383.3625,1156.3875 Q382.6125,1155.6938 381.9,1155.3656 Q381.1875,1155.0375 380.4375,1155.0375 Q378.825,1155.0375 378,1156.3219 Q377.175,1157.6063 377.175,1160.1187 Q377.175,1162.6313 378,1163.9156 Q378.825,1165.2 380.4375,1165.2 Q381.1875,1165.2 381.9,1164.8719 Q382.6125,1164.5438 383.3625,1163.85 L383.3625,1167.1125 Z "/><text fill="#000000" font-family="sans-serif" font-size="14.4" lengthAdjust="spacingAndGlyphs" textLength="103.2" x="396.6" y="1165.3289">AbsProcessor</text><line style="stroke: #A80036; stroke-width: 1.7999999999999998;" x1="363" x2="502.2" y1="1179.5438" y2="1179.5438"/><line style="stroke: #A80036; stroke-width: 1.2;" x1="363" x2="502.2" y1="1189.1438" y2="1189.1438"/><ellipse cx="375" cy="1202.3438" fill="none" rx="3.6" ry="3.6" style="stroke: #038048; stroke-width: 1.2;"/><text fill="#000000" font-family="sans-serif" font-size="13.2" lengthAdjust="spacingAndGlyphs" textLength="79.2" x="385.8" y="1206.1963">构建请求报文</text><ellipse cx="375" cy="1217.7094" fill="none" rx="3.6" ry="3.6" style="stroke: #038048; stroke-width: 1.2;"/><text fill="#000000" font-family="sans-serif" font-size="13.2" lengthAdjust="spacingAndGlyphs" textLength="79.2" x="385.8" y="1221.5619">构建响应报文</text><ellipse cx="375" cy="1233.075" fill="none" rx="3.6" ry="3.6" style="stroke: #038048; stroke-width: 1.2;"/><text fill="#000000" font-family="sans-serif" font-size="13.2" lengthAdjust="spacingAndGlyphs" textLength="66" x="385.8" y="1236.9275">生成加密串</text><rect fill="#FEFECE" filter="url(#fcpkg2teasj6a)" height="57.6" id="ProcessorImpl1" style="stroke: #A80036; stroke-width: 1.7999999999999998;" width="153.6" x="741" y="1163.9438"/><ellipse cx="759" cy="1183.1438" fill="#ADD1B2" rx="13.2" ry="13.2" style="stroke: #A80036; stroke-width: 1.2;"/><path d="M762.5625,1189.9125 Q761.8688,1190.2688 761.1,1190.4469 Q760.3313,1190.625 759.4875,1190.625 Q756.4875,1190.625 754.9031,1188.6469 Q753.3188,1186.6688 753.3188,1182.9188 Q753.3188,1179.1688 754.9031,1177.1812 Q756.4875,1175.1938 759.4875,1175.1938 Q760.3313,1175.1938 761.1094,1175.3813 Q761.8875,1175.5688 762.5625,1175.925 L762.5625,1179.1875 Q761.8125,1178.4937 761.1,1178.1656 Q760.3875,1177.8375 759.6375,1177.8375 Q758.025,1177.8375 757.2,1179.1219 Q756.375,1180.4063 756.375,1182.9188 Q756.375,1185.4312 757.2,1186.7156 Q758.025,1188 759.6375,1188 Q760.3875,1188 761.1,1187.6719 Q761.8125,1187.3438 762.5625,1186.65 L762.5625,1189.9125 Z "/><text fill="#000000" font-family="sans-serif" font-size="14.4" lengthAdjust="spacingAndGlyphs" textLength="115.2" x="775.8" y="1188.1289">ProcessorImpl1</text><line style="stroke: #A80036; stroke-width: 1.7999999999999998;" x1="742.2" x2="893.4" y1="1202.3438" y2="1202.3438"/><line style="stroke: #A80036; stroke-width: 1.7999999999999998;" x1="742.2" x2="893.4" y1="1211.9438" y2="1211.9438"/><rect fill="#FEFECE" filter="url(#fcpkg2teasj6a)" height="57.6" id="ProcessorImpl2" style="stroke: #A80036; stroke-width: 1.7999999999999998;" width="153.6" x="545.4" y="1163.9438"/><ellipse cx="563.4" cy="1183.1438" fill="#ADD1B2" rx="13.2" ry="13.2" style="stroke: #A80036; stroke-width: 1.2;"/><path d="M566.9625,1189.9125 Q566.2688,1190.2688 565.5,1190.4469 Q564.7312,1190.625 563.8875,1190.625 Q560.8875,1190.625 559.3031,1188.6469 Q557.7188,1186.6688 557.7188,1182.9188 Q557.7188,1179.1688 559.3031,1177.1812 Q560.8875,1175.1938 563.8875,1175.1938 Q564.7312,1175.1938 565.5094,1175.3813 Q566.2875,1175.5688 566.9625,1175.925 L566.9625,1179.1875 Q566.2125,1178.4937 565.5,1178.1656 Q564.7875,1177.8375 564.0375,1177.8375 Q562.425,1177.8375 561.6,1179.1219 Q560.775,1180.4063 560.775,1182.9188 Q560.775,1185.4312 561.6,1186.7156 Q562.425,1188 564.0375,1188 Q564.7875,1188 565.5,1187.6719 Q566.2125,1187.3438 566.9625,1186.65 L566.9625,1189.9125 Z "/><text fill="#000000" font-family="sans-serif" font-size="14.4" lengthAdjust="spacingAndGlyphs" textLength="115.2" x="580.2" y="1188.1289">ProcessorImpl2</text><line style="stroke: #A80036; stroke-width: 1.7999999999999998;" x1="546.6" x2="697.8" y1="1202.3438" y2="1202.3438"/><line style="stroke: #A80036; stroke-width: 1.7999999999999998;" x1="546.6" x2="697.8" y1="1211.9438" y2="1211.9438"/><rect fill="#FEFECE" filter="url(#fcpkg2teasj6a)" height="72.9656" id="LoadBalance" style="stroke: #A80036; stroke-width: 1.7999999999999998;" width="134.4" x="553.8" y="689.3438"/><ellipse cx="571.8" cy="708.5437" fill="#B4A7E5" rx="13.2" ry="13.2" style="stroke: #A80036; stroke-width: 1.2;"/><path d="M566.9063,703.4625 L566.9063,700.875 L575.775,700.875 L575.775,703.4625 L572.8125,703.4625 L572.8125,713.1563 L575.775,713.1563 L575.775,715.7438 L566.9063,715.7438 L566.9063,713.1563 L569.8688,713.1563 L569.8688,703.4625 L566.9063,703.4625 Z "/><text fill="#000000" font-family="sans-serif" font-size="14.4" font-style="italic" lengthAdjust="spacingAndGlyphs" textLength="96" x="588.6" y="713.5289">LoadBalance</text><line style="stroke: #A80036; stroke-width: 1.7999999999999998;" x1="555" x2="687" y1="727.7438" y2="727.7438"/><line style="stroke: #A80036; stroke-width: 1.2;" x1="555" x2="687" y1="737.3438" y2="737.3438"/><ellipse cx="567" cy="750.5437" fill="none" rx="3.6" ry="3.6" style="stroke: #038048; stroke-width: 1.2;"/><text fill="#000000" font-family="sans-serif" font-size="13.2" lengthAdjust="spacingAndGlyphs" textLength="48" x="577.8" y="754.3963">get渠道</text><rect fill="#FEFECE" filter="url(#fcpkg2teasj6a)" height="88.3313" id="DefaultLoadBalance" style="stroke: #A80036; stroke-width: 1.7999999999999998;" width="188.4" x="730.8" y="681.5437"/><ellipse cx="748.8" cy="700.7438" fill="#ADD1B2" rx="13.2" ry="13.2" style="stroke: #A80036; stroke-width: 1.2;"/><path d="M752.3625,707.5125 Q751.6687,707.8688 750.9,708.0469 Q750.1313,708.225 749.2875,708.225 Q746.2875,708.225 744.7031,706.2469 Q743.1188,704.2688 743.1188,700.5188 Q743.1188,696.7688 744.7031,694.7813 Q746.2875,692.7937 749.2875,692.7937 Q750.1313,692.7937 750.9094,692.9812 Q751.6875,693.1687 752.3625,693.525 L752.3625,696.7875 Q751.6125,696.0938 750.9,695.7656 Q750.1875,695.4375 749.4375,695.4375 Q747.825,695.4375 747,696.7219 Q746.175,698.0063 746.175,700.5188 Q746.175,703.0313 747,704.3156 Q747.825,705.6 749.4375,705.6 Q750.1875,705.6 750.9,705.2719 Q751.6125,704.9438 752.3625,704.25 L752.3625,707.5125 Z "/><text fill="#000000" font-family="sans-serif" font-size="14.4" lengthAdjust="spacingAndGlyphs" textLength="150" x="765.6" y="705.7289">DefaultLoadBalance</text><line style="stroke: #A80036; stroke-width: 1.7999999999999998;" x1="732" x2="918" y1="719.9438" y2="719.9438"/><rect fill="none" height="7.2" style="stroke: #C82930; stroke-width: 1.2;" width="7.2" x="740.4" y="729.5437"/><text fill="#000000" font-family="sans-serif" font-size="13.2" lengthAdjust="spacingAndGlyphs" textLength="54" x="754.8" y="736.9963">渠道Map</text><line style="stroke: #A80036; stroke-width: 1.2;" x1="732" x2="918" y1="744.9094" y2="744.9094"/><ellipse cx="744" cy="758.1094" fill="none" rx="3.6" ry="3.6" style="stroke: #038048; stroke-width: 1.2;"/><text fill="#000000" font-family="sans-serif" font-size="13.2" lengthAdjust="spacingAndGlyphs" textLength="48" x="754.8" y="761.9619">get渠道</text><rect fill="#FEFECE" filter="url(#fcpkg2teasj6a)" height="72.9656" id="渠道" style="stroke: #A80036; stroke-width: 1.7999999999999998;" width="79.2" x="961.8" y="689.3438"/><ellipse cx="985.2" cy="708.5437" fill="#B4A7E5" rx="13.2" ry="13.2" style="stroke: #A80036; stroke-width: 1.2;"/><path d="M980.3063,703.4625 L980.3063,700.875 L989.175,700.875 L989.175,703.4625 L986.2125,703.4625 L986.2125,713.1563 L989.175,713.1563 L989.175,715.7438 L980.3063,715.7438 L980.3063,713.1563 L983.2688,713.1563 L983.2688,703.4625 L980.3063,703.4625 Z "/><text fill="#000000" font-family="sans-serif" font-size="14.4" font-style="italic" lengthAdjust="spacingAndGlyphs" textLength="28.8" x="1003.2" y="713.5289">渠道</text><line style="stroke: #A80036; stroke-width: 1.7999999999999998;" x1="963" x2="1039.8" y1="727.7438" y2="727.7438"/><line style="stroke: #A80036; stroke-width: 1.2;" x1="963" x2="1039.8" y1="737.3438" y2="737.3438"/><ellipse cx="975" cy="750.5437" fill="none" rx="3.6" ry="3.6" style="stroke: #038048; stroke-width: 1.2;"/><text fill="#000000" font-family="sans-serif" font-size="13.2" lengthAdjust="spacingAndGlyphs" textLength="48" x="985.8" y="754.3963">get权重</text><path d="M663.7913,106.4824 C610.6208,145.0419 533.402,201.0414 483.0918,237.5267 " fill="none" id="用户实名Facade&lt;-AbsFacade" style="stroke: #A80036; stroke-width: 1.2; stroke-dasharray: 7.0,7.0;"/><polygon fill="none" points="658.8698,99.675,683.2301,92.3851,668.7328,113.2752,658.8698,99.675" style="stroke: #A80036; stroke-width: 1.2;"/><path d="M506.221,114.6317 C488.6903,152.615 465.1872,203.5383 449.5002,237.5267 " fill="none" id="用户验卡Facade&lt;-AbsFacade" style="stroke: #A80036; stroke-width: 1.2; stroke-dasharray: 7.0,7.0;"/><polygon fill="none" points="498.8042,110.6561,516.4885,92.3851,514.0579,117.6964,498.8042,110.6561" style="stroke: #A80036; stroke-width: 1.2;"/><path d="M359.8879,114.6317 C377.2022,152.615 400.4152,203.5383 415.9085,237.5267 " fill="none" id="资金出款Facade&lt;-AbsFacade" style="stroke: #A80036; stroke-width: 1.2; stroke-dasharray: 7.0,7.0;"/><polygon fill="none" points="352.0585,117.7075,349.7471,92.3851,367.3452,110.7392,352.0585,117.7075" style="stroke: #A80036; stroke-width: 1.2;"/><path d="M196.6321,106.4824 C250.901,145.0419 329.7154,201.0414 381.065,237.5267 " fill="none" id="其他渠道类Facade&lt;-AbsFacade" style="stroke: #A80036; stroke-width: 1.2; stroke-dasharray: 7.0,7.0;"/><polygon fill="none" points="191.4907,113.1338,176.7917,92.3851,201.2214,99.4388,191.4907,113.1338" style="stroke: #A80036; stroke-width: 1.2;"/><path d="M105.857,245.2906 C126.1993,228.9798 153.9706,210.1713 182.4,201.5438 C239.0489,184.3524 258.6678,185.3153 315.6,201.5438 C332.9858,206.4995 350.31,214.8629 366.0918,224.1882 " fill="none" id="FacadeImpl1-&gt;AbsFacade" style="stroke: #A80036; stroke-width: 1.2;"/><polygon fill="none" points="370.838,217.2528,386.5172,237.271,361.7767,231.3997,370.838,217.2528" style="stroke: #A80036; stroke-width: 1.2;"/><path d="M315.6984,274.1438 C321.542,274.1438 327.3857,274.1438 333.2294,274.1438 " fill="none" id="FacadeImpl2-&gt;AbsFacade" style="stroke: #A80036; stroke-width: 1.2;"/><polygon fill="none" points="333.2533,265.7436,357.2533,274.1438,333.2532,282.5436,333.2533,265.7436" style="stroke: #A80036; stroke-width: 1.2;"/><path d="M432.6,311.1923 C432.6,344.0794 432.6,392.7698 432.6,431.4203 " fill="none" id="AbsFacade-&gt;ProcFactory" style="stroke: #A80036; stroke-width: 1.2; stroke-dasharray: 7.0,7.0;"/><polygon fill="none" points="441.0001,431.6786,432.6,455.6786,424.2001,431.6784,441.0001,431.6786" style="stroke: #A80036; stroke-width: 1.2;"/><path d="M432.6,553.561 C432.6,590.9631 432.6,638.3324 432.6,673.9466 " fill="none" id="ProcFactory&lt;-ProcFactoryImpl" style="stroke: #A80036; stroke-width: 1.2;"/><polygon fill="none" points="424.2001,553.5267,432.6,529.5267,441.0001,553.5267,424.2001,553.5267" style="stroke: #A80036; stroke-width: 1.2;"/><path d="M432.6,1020.361 C432.6,1057.7631 432.6,1105.1323 432.6,1140.7465 " fill="none" id="Processor&lt;-AbsProcessor" style="stroke: #A80036; stroke-width: 1.2;"/><polygon fill="none" points="424.2001,1020.3267,432.6,996.3267,441.0001,1020.3267,424.2001,1020.3267" style="stroke: #A80036; stroke-width: 1.2;"/><path d="M504.3166,1126.5185 C517.3672,1117.7544 531.4762,1110.1002 546,1105.1438 C610.6081,1083.0954 634.7752,1083.7409 699.6,1105.1438 C734.5262,1116.6752 767.5596,1142.951 789.7788,1163.7351 " fill="none" id="AbsProcessor&lt;-ProcessorImpl1" style="stroke: #A80036; stroke-width: 1.2;"/><polygon fill="none" points="509.0624,1133.4564,484.7722,1140.9761,499.0715,1119.9501,509.0624,1133.4564" style="stroke: #A80036; stroke-width: 1.2;"/><path d="M527.7847,1192.7437 C533.6432,1192.7437 539.5016,1192.7437 545.3602,1192.7437 " fill="none" id="AbsProcessor&lt;-ProcessorImpl2" style="stroke: #A80036; stroke-width: 1.2;"/><polygon fill="none" points="527.7,1201.1436,503.7,1192.7437,527.7,1184.3436,527.7,1201.1436" style="stroke: #A80036; stroke-width: 1.2;"/><path d="M712.3882,725.9438 C718.4286,725.9438 724.4692,725.9438 730.5096,725.9438 " fill="none" id="LoadBalance&lt;-DefaultLoadBalance" style="stroke: #A80036; stroke-width: 1.2;"/><polygon fill="none" points="712.336,734.3436,688.336,725.9438,712.3358,717.5436,712.336,734.3436" style="stroke: #A80036; stroke-width: 1.2;"/><path d="M933.8016,725.9438 C933.8016,725.9438 942.4135,725.9438 945.992,725.9438 " fill="none" id="DefaultLoadBalance-渠道" style="stroke: #A80036; stroke-width: 1.2;"/><polygon fill="#A80036" points="961.682,725.9438,950.882,721.1438,955.682,725.9438,950.882,730.7438,961.682,725.9438" style="stroke: #A80036; stroke-width: 1.2;"/><line style="stroke: #A80036; stroke-width: 1.2;" x1="955.682" x2="946.082" y1="725.9438" y2="725.9436"/><polygon fill="#FFFFFF" points="919.4016,725.9438,926.6016,730.7438,933.8016,725.9438,926.6016,721.1438,919.4016,725.9438" style="stroke: #A80036; stroke-width: 1.2;"/><text fill="#000000" font-family="sans-serif" font-size="15.6" lengthAdjust="spacingAndGlyphs" textLength="9.6" x="928.8568" y="721.5961">1</text><text fill="#000000" font-family="sans-serif" font-size="15.6" lengthAdjust="spacingAndGlyphs" textLength="8.4" x="943.675" y="720.4983">*</text><path d="M432.6,792.1428 C432.6,792.1428 432.6,873.2286 432.6,906.5896 " fill="none" id="ProcFactoryImpl-Processor" style="stroke: #A80036; stroke-width: 1.2;"/><polygon fill="#A80036" points="432.6,922.55,437.4,911.75,432.6,916.55,427.8,911.75,432.6,922.55" style="stroke: #A80036; stroke-width: 1.2;"/><line style="stroke: #A80036; stroke-width: 1.2;" x1="432.6" x2="432.6001" y1="916.55" y2="906.95"/><polygon fill="#FFFFFF" points="432.6,777.7428,427.8,784.9428,432.6,792.1428,437.4,784.9428,432.6,777.7428" style="stroke: #A80036; stroke-width: 1.2;"/><text fill="#000000" font-family="sans-serif" font-size="15.6" lengthAdjust="spacingAndGlyphs" textLength="9.6" x="422.205" y="802.265">1</text><text fill="#000000" font-family="sans-serif" font-size="15.6" lengthAdjust="spacingAndGlyphs" textLength="8.4" x="423.3337" y="909.6259">*</text><path d="M511.3453,725.9438 C523.3823,725.9438 535.4192,725.9438 547.4563,725.9438 " fill="none" id="ProcFactoryImpl-&gt;LoadBalance" style="stroke: #A80036; stroke-width: 1.2; stroke-dasharray: 7.0,7.0;"/><polygon fill="#A80036" points="553.7508,725.9438,542.9508,721.1438,547.7508,725.9438,542.9508,730.7438,553.7508,725.9438" style="stroke: #A80036; stroke-width: 1.2;"/></g></svg>